<svg width="56" height="56" viewBox="0 0 56 56" fill="none" xmlns="http://www.w3.org/2000/svg">
<path d="M28 50.75C34.7655 50.75 40.25 45.2655 40.25 38.5C40.25 31.7345 34.7655 26.25 28 26.25C21.2345 26.25 15.75 31.7345 15.75 38.5C15.75 45.2655 21.2345 50.75 28 50.75Z" fill="#FFCB3F"/>
<path d="M42 17.5359C42 18.5384 41.5701 19.4927 40.8193 20.1571L29.1597 30.4739C28.4976 31.0598 27.5025 31.0598 26.8403 30.4739L15.1807 20.1571C14.4299 19.4927 14 18.5384 14 17.5358V8.75C14 7.7835 14.7835 7 15.75 7H40.25C41.2165 7 42 7.7835 42 8.75V17.5359Z" fill="#157DFE"/>
</svg>
