<svg xmlns="http://www.w3.org/2000/svg" width="28" height="28" viewBox="0 0 28 28">
    <g fill="none" fill-rule="evenodd">
        <rect width="28" height="28" fill="#FFF" rx="14"/>
        <g fill-rule="nonzero">
            <path fill="#FFF" d="M12.362 9.037a5.337 5.337 0 0 0-3.024 2.598 5.12 5.12 0 0 0-.465 1.318 5.166 5.166 0 0 0 .462 3.386 5.305 5.305 0 0 0 1.449 1.748c.57.445 1.234.777 1.94.96.889.234 1.835.228 2.73.028a4.875 4.875 0 0 0 2.187-1.114 4.743 4.743 0 0 0 1.35-2.173 6.038 6.038 0 0 0 .136-2.782h-5.02v2.044h2.908a2.463 2.463 0 0 1-1.067 1.619 3.09 3.09 0 0 1-1.176.456c-.42.07-.855.078-1.274-.003a3.19 3.19 0 0 1-1.188-.504 3.244 3.244 0 0 1-1.222-1.607 3.12 3.12 0 0 1 0-2.038 3.26 3.26 0 0 1 .775-1.236 3.182 3.182 0 0 1 3.161-.808c.43.126.826.36 1.15.664.328-.32.655-.642.982-.963.172-.171.353-.337.519-.515a5.22 5.22 0 0 0-1.718-1.044 5.483 5.483 0 0 0-3.595-.034z"/>
            <path fill="#EA4335" d="M12.362 9.037a5.501 5.501 0 0 1 3.595.031c.636.23 1.219.591 1.718 1.044-.166.178-.347.344-.52.516l-.98.962a2.919 2.919 0 0 0-1.15-.664 3.208 3.208 0 0 0-1.567-.062 3.24 3.24 0 0 0-2.37 2.106c-.582-.445-1.165-.887-1.75-1.332a5.331 5.331 0 0 1 3.024-2.6z"/>
            <path fill="#FBBC05" d="M8.876 12.95c.095-.456.25-.9.465-1.317.582.444 1.165.886 1.75 1.331a3.102 3.102 0 0 0 0 2.038c-.582.445-1.165.89-1.747 1.332a5.123 5.123 0 0 1-.468-3.384z"/>
            <path fill="#4285F4" d="M14.106 13.003h5.02c.167.921.13 1.88-.134 2.782a4.743 4.743 0 0 1-1.351 2.173l-1.696-1.292c.56-.369.955-.966 1.067-1.619h-2.909c.003-.681.003-1.362.003-2.044z"/>
            <path fill="#34A853" d="M9.338 16.336c.582-.441 1.165-.886 1.747-1.331a3.26 3.26 0 0 0 1.222 1.607c.356.245.763.42 1.188.504.419.085.852.073 1.274.003a3.09 3.09 0 0 0 1.176-.456l1.696 1.292a4.847 4.847 0 0 1-2.186 1.115c-.896.2-1.842.205-2.732-.028a5.312 5.312 0 0 1-3.385-2.706z"/>
        </g>
    </g>
</svg>
