<svg width="20" height="20" viewBox="0 0 20 20" fill="none" xmlns="http://www.w3.org/2000/svg">
<path fill-rule="evenodd" clip-rule="evenodd" d="M10 0C4.3662 0 0 4.12676 0 9.7002C0 12.6157 1.19517 15.1348 3.14085 16.8753C3.30382 17.0221 3.40241 17.2254 3.41046 17.4447L3.46479 19.2233C3.4829 19.7907 4.06841 20.159 4.58753 19.9316L6.57143 19.0563C6.74044 18.9819 6.92757 18.9678 7.10463 19.0161C8.0161 19.2676 8.98793 19.4004 10 19.4004C15.6338 19.4004 20 15.2736 20 9.7002C20 4.12676 15.6338 0 10 0ZM16.004 7.46278L13.0664 12.1227C12.5996 12.8632 11.5976 13.0483 10.8974 12.5231L8.56137 10.7706C8.34608 10.6097 8.05231 10.6117 7.83904 10.7726L4.6841 13.167C4.26358 13.4869 3.71227 12.9819 3.99598 12.5352L6.9336 7.87525C7.4004 7.13481 8.40241 6.9497 9.10262 7.47485L11.4386 9.22736C11.6539 9.38833 11.9477 9.38632 12.161 9.22535L15.3159 6.83099C15.7364 6.51107 16.2877 7.0161 16.004 7.46278Z" fill="white"/>
</svg>
