<svg width="14" height="14" viewBox="0 0 14 14" fill="none" xmlns="http://www.w3.org/2000/svg">
<path d="M4.01594 11.5501L4.21751 11.669C5.06453 12.1694 6.03561 12.434 7.0259 12.4345H7.02806C10.0693 12.4345 12.5445 9.97126 12.5457 6.94378C12.5462 5.47654 11.9728 4.09707 10.9311 3.05914C9.88923 2.02141 8.50406 1.44952 7.03003 1.44891C3.98646 1.44891 1.51124 3.91181 1.51009 6.93929C1.50969 7.97673 1.80124 8.98713 2.35366 9.86124L2.48496 10.069L1.92741 12.0951L4.01594 11.5501ZM0.333618 13.6646L1.27541 10.2415C0.694502 9.23966 0.388902 8.10319 0.38938 6.93898C0.390796 3.29663 3.36865 0.333344 7.02819 0.333344C8.80396 0.334105 10.4707 1.02204 11.7241 2.27071C12.9774 3.51936 13.6674 5.17914 13.6668 6.94431C13.6653 10.5865 10.6868 13.5503 7.02819 13.5503C7.02792 13.5503 7.02833 13.5503 7.02819 13.5503H7.02536C5.91433 13.5499 4.82263 13.2725 3.85301 12.7461L0.333618 13.6646Z" fill="white"/>
<path d="M0.389136 6.94123C0.388734 8.10542 0.694334 9.24203 1.27524 10.2438L0.333374 13.6667L3.85265 12.7482C4.82233 13.2745 5.91397 13.5519 7.025 13.5524H7.02784C10.6864 13.5524 13.6649 10.5885 13.6665 6.94636C13.6671 5.18109 12.9771 3.52135 11.7238 2.27275C10.4703 1.02416 8.80365 0.33615 7.02784 0.335388C3.36848 0.335388 0.390555 3.29868 0.389024 6.94102L0.389136 6.94123ZM2.48479 10.0712L2.35342 9.86347C1.801 8.98925 1.50945 7.97887 1.50985 6.94152C1.51105 3.91423 3.98622 1.45114 7.02979 1.45114C8.50367 1.45171 9.88888 2.02366 10.9308 3.06138C11.9727 4.09917 12.5459 5.47875 12.5455 6.94582C12.5442 9.9733 10.069 12.4366 7.0277 12.4366H7.02554C6.03528 12.436 5.06411 12.1714 4.21716 11.6711L4.01558 11.5522L1.92709 12.0972L2.48479 10.0712ZM7.02784 13.5524H7.0279H7.02784C7.0277 13.5524 7.02777 13.5524 7.02784 13.5524Z" fill="white"/>
<path fill-rule="evenodd" clip-rule="evenodd" d="M5.36872 4.1788C5.24444 3.90382 5.11368 3.89832 4.99548 3.89348C4.89874 3.88938 4.7881 3.88965 4.67759 3.88965C4.56695 3.88965 4.38724 3.93098 4.23528 4.09621C4.08319 4.26144 3.65466 4.66086 3.65466 5.4732C3.65466 6.28561 4.24914 7.0706 4.33196 7.18087C4.41492 7.29094 5.47952 9.01132 7.16541 9.6731C8.56665 10.2231 8.8518 10.1137 9.15592 10.0862C9.46005 10.0587 10.1373 9.68687 10.2755 9.3013C10.4138 8.91579 10.4138 8.58533 10.3723 8.51632C10.3309 8.44751 10.2202 8.40618 10.0544 8.32367C9.88844 8.24109 9.07295 7.8416 8.92093 7.7865C8.76884 7.73146 8.65825 7.70398 8.54761 7.86928C8.43703 8.03439 8.11935 8.40619 8.02254 8.51632C7.9258 8.62666 7.829 8.64044 7.66313 8.55785C7.4972 8.475 6.96295 8.30082 6.32919 7.73839C5.83605 7.30074 5.50317 6.76028 5.40636 6.59496C5.30962 6.42986 5.39603 6.34042 5.4792 6.2581C5.55373 6.18411 5.64513 6.06531 5.7281 5.96895C5.81086 5.87252 5.83847 5.80371 5.89376 5.69357C5.94912 5.58337 5.92144 5.48694 5.87999 5.40435C5.83847 5.32176 5.51612 4.50525 5.36862 4.17875" fill="white"/>
</svg>
