<svg width="14" height="13" viewBox="0 0 14 13" fill="none" xmlns="http://www.w3.org/2000/svg">
<path fill-rule="evenodd" clip-rule="evenodd" d="M3.36054 12.6667V4.12004H0.502335V12.6667H3.36054V12.6667ZM1.93142 2.95314C2.92813 2.95314 3.54851 2.29686 3.54851 1.47669C3.52993 0.638064 2.92814 -1.01561e-05 1.95033 -1.01561e-05C0.972626 -1.01561e-05 0.333374 0.638064 0.333374 1.47669C0.333374 2.29686 0.953612 2.95314 1.91279 2.95314H1.93137H1.93142Z" fill="white"/>
<path fill-rule="evenodd" clip-rule="evenodd" d="M4.94202 12.6667H7.80019V7.89386C7.80019 7.63843 7.81877 7.38325 7.89424 7.20066C8.10086 6.6903 8.57115 6.16173 9.36074 6.16173C10.395 6.16173 10.8087 6.94548 10.8087 8.09442V12.6667H13.6667V7.76615C13.6667 5.14101 12.2566 3.91949 10.3761 3.91949C8.83418 3.91949 8.15727 4.77607 7.78118 5.35952H7.80027V4.12004H4.94209C4.9796 4.922 4.94209 12.6667 4.94209 12.6667H4.94202Z" fill="white"/>
</svg>
