<svg width="25" height="25" viewBox="0 0 25 25" fill="none" xmlns="http://www.w3.org/2000/svg">
<path fill-rule="evenodd" clip-rule="evenodd" d="M12.5 0C19.4036 0 25 5.59644 25 12.5C25 19.4036 19.4036 25 12.5 25C5.59644 25 0 19.4036 0 12.5C0 5.59644 5.59644 0 12.5 0ZM12.1688 5.83326C10.6581 5.83426 10.4165 5.84293 9.75127 5.87328C9.04167 5.90565 8.55703 6.01836 8.13297 6.18318C7.69457 6.35353 7.32277 6.58149 6.95212 6.95212C6.58149 7.32277 6.35353 7.69457 6.18318 8.13297C6.01836 8.55703 5.90565 9.04167 5.87328 9.75127C5.84293 10.4165 5.83426 10.6581 5.83326 12.1688V12.8312C5.83426 14.3419 5.84293 14.5835 5.87328 15.2487C5.90565 15.9583 6.01836 16.443 6.18318 16.867C6.35353 17.3054 6.58149 17.6772 6.95212 18.0479C7.32277 18.4185 7.69457 18.6465 8.13297 18.8168C8.55703 18.9816 9.04167 19.0944 9.75127 19.1267C10.4165 19.1571 10.6581 19.1657 12.1688 19.1667H12.8312C14.3419 19.1657 14.5835 19.1571 15.2487 19.1267C15.9583 19.0944 16.443 18.9816 16.867 18.8168C17.3054 18.6465 17.6772 18.4185 18.0479 18.0479C18.4185 17.6772 18.6465 17.3054 18.8168 16.867C18.9816 16.443 19.0944 15.9583 19.1267 15.2487C19.1571 14.5835 19.1657 14.3419 19.1667 12.8312V12.1688C19.1657 10.6581 19.1571 10.4165 19.1267 9.75127C19.0944 9.04167 18.9816 8.55703 18.8168 8.13297C18.6465 7.69457 18.4185 7.32277 18.0479 6.95212C17.6772 6.58149 17.3054 6.35353 16.867 6.18318C16.443 6.01836 15.9583 5.90565 15.2487 5.87328C14.5835 5.84293 14.3419 5.83426 12.8312 5.83326H12.1688ZM13.1151 7.03477C14.3427 7.03657 14.5817 7.04533 15.194 7.07327C15.844 7.10291 16.197 7.21152 16.4319 7.30282C16.7431 7.42376 16.9652 7.56823 17.1985 7.80153C17.4318 8.03481 17.5762 8.2569 17.6972 8.56809C17.7885 8.80301 17.8971 9.15602 17.9267 9.80603C17.9547 10.4183 17.9634 10.6573 17.9652 11.8849V13.1151C17.9634 14.3427 17.9547 14.5817 17.9267 15.194C17.8971 15.844 17.7885 16.197 17.6972 16.4319C17.5762 16.7431 17.4318 16.9652 17.1985 17.1985C16.9652 17.4318 16.7431 17.5762 16.4319 17.6972C16.197 17.7885 15.844 17.8971 15.194 17.9267C14.5818 17.9547 14.3429 17.9634 13.1152 17.9652H11.8848C10.6572 17.9634 10.4182 17.9547 9.80603 17.9267C9.15602 17.8971 8.80301 17.7885 8.56809 17.6972C8.2569 17.5762 8.03481 17.4318 7.80153 17.1985C7.56825 16.9652 7.42376 16.7431 7.30282 16.4319C7.21152 16.197 7.10291 15.844 7.07327 15.194C7.04533 14.5817 7.03657 14.3427 7.03477 13.1151V11.8849C7.03657 10.6573 7.04533 10.4183 7.07327 9.80603C7.10291 9.15602 7.21152 8.80301 7.30282 8.56809C7.42376 8.2569 7.56823 8.03481 7.80153 7.80153C8.03481 7.56823 8.2569 7.42376 8.56809 7.30282C8.80301 7.21152 9.15602 7.10291 9.80603 7.07327C10.4183 7.04533 10.6573 7.03657 11.8849 7.03477H13.1151ZM12.5 9.07649C10.6092 9.07649 9.07649 10.6092 9.07649 12.5C9.07649 14.3908 10.6092 15.9235 12.5 15.9235C14.3908 15.9235 15.9235 14.3908 15.9235 12.5C15.9235 10.6092 14.3908 9.07649 12.5 9.07649ZM12.5 10.2777C13.7273 10.2777 14.7223 11.2727 14.7223 12.5C14.7223 13.7273 13.7273 14.7223 12.5 14.7223C11.2727 14.7223 10.2777 13.7273 10.2777 12.5C10.2777 11.2727 11.2727 10.2777 12.5 10.2777ZM16.0588 8.1412C15.6169 8.1412 15.2588 8.49939 15.2588 8.94123C15.2588 9.38308 15.6169 9.74124 16.0588 9.74124C16.5006 9.74124 16.8588 9.38308 16.8588 8.94123C16.8588 8.49939 16.5006 8.1412 16.0588 8.1412Z" fill="black"/>
</svg>
